<?xml version="1.0" encoding="UTF-8" standalone="no"?>
<!-- Created with Inkscape (http://www.inkscape.org/) -->

<svg
   width="1000.0001"
   height="1000.0001"
   viewBox="0 0 264.58333 264.58333"
   version="1.1"
   id="svg248"
   inkscape:version="1.2.2 (b0a8486541, 2022-12-01)"
   sodipodi:docname="logo.svg"
   inkscape:export-filename="logo.png"
   inkscape:export-xdpi="96"
   inkscape:export-ydpi="96"
   xmlns:inkscape="http://www.inkscape.org/namespaces/inkscape"
   xmlns:sodipodi="http://sodipodi.sourceforge.net/DTD/sodipodi-0.dtd"
   xmlns="http://www.w3.org/2000/svg"
   xmlns:svg="http://www.w3.org/2000/svg"
   xmlns:rdf="http://www.w3.org/1999/02/22-rdf-syntax-ns#"
   xmlns:cc="http://creativecommons.org/ns#">
  <sodipodi:namedview
     id="namedview250"
     pagecolor="#ffffff"
     bordercolor="#000000"
     borderopacity="0.25"
     inkscape:showpageshadow="2"
     inkscape:pageopacity="0.0"
     inkscape:pagecheckerboard="0"
     inkscape:deskcolor="#d1d1d1"
     inkscape:document-units="mm"
     showgrid="false"
     inkscape:zoom="0.44635225"
     inkscape:cx="238.60079"
     inkscape:cy="536.57173"
     inkscape:window-width="1904"
     inkscape:window-height="1028"
     inkscape:window-x="6"
     inkscape:window-y="6"
     inkscape:window-maximized="1"
     inkscape:current-layer="g524"
     showguides="false" />
  <defs
     id="defs245" />
  <g
     inkscape:label="Layer 1"
     inkscape:groupmode="layer"
     id="layer1">
    <g
       id="g1074"
       transform="translate(17.958577,-13.430508)">
      <g
         id="g1290"
         transform="translate(-2.6458334,-1.0583333)">
        <g
           id="g480"
           transform="translate(-0.52916663,1.5875)">
          <g
             id="g524"
             transform="translate(1.5875,0.52916667)">
            <path
               style="fill:#6ecddd;fill-opacity:1;stroke-width:0.301487"
               d="m 21.164126,126.97342 5.083961,1.18789 -13.424393,21.89276 50.680856,87.78181 h 100.94749 l 50.00888,-87.53446 -12.11108,-25.52988 4.8886,-0.39878 12.22067,25.66568 -52.89091,92.52631 H 60.699325 L 7.2796027,150.03908 Z"
               id="path1421"
               sodipodi:nodetypes="ccccccccccccc" />
            <path
               style="fill:#6ecddd;fill-opacity:1;stroke-width:0.301487"
               d="M -2.6559777,89.622564 29.198944,103.3225 1.5376201,96.630346 l 6.2265496,11.108084 43.4029053,4.11668 -28.94844,1.06487 3.414124,12.74351 35.109521,-9.51556 -19.208776,6.73013 0.05229,12.85839 30.015607,-15.81737 -16.621576,10.95835 3.428405,12.79497 21.4968,-20.26227 -14.013569,17.06167 5.488115,13.60406 17.937254,-35.19583 -6.38649,-1.24482 -8.888896,-2.72233 -9.788866,-3.6143 -8.222279,-3.78843 L 32.526634,97.088487 -11.08855,75.832708 Z"
               id="path541"
               sodipodi:nodetypes="cccccccccccccccccccccccc" />
            <path
               style="fill:#6ecddd;fill-opacity:1;stroke-width:0.301487"
               d="m 81.29693,140.23261 -6.000134,9.94738 4.912322,9.17818 5.533724,-12.11468 z"
               id="path543"
               sodipodi:nodetypes="ccccc" />
            <path
               style="fill:#6ecddd;fill-opacity:1;stroke-width:0.301487"
               d="m 86.800828,148.24985 -3.869164,8.62637 4.436585,5.64696 4.865361,-5.85631 z"
               id="path545"
               sodipodi:nodetypes="ccccc" />
            <path
               style="fill:#6ecddd;fill-opacity:1;stroke-width:0.301487"
               d="M 78.47454,100.02378 93.10777,110.5738 99.220927,98.927632 Z"
               id="path547" />
            <path
               style="fill:#6ecddd;fill-opacity:1;stroke-width:0.301487"
               d="M 82.936081,137.37571 100.37441,99.155672 115.95302,116.03901 Z"
               id="path549" />
            <path
               style="fill:#6ecddd;fill-opacity:1;stroke-width:0.301487"
               d="m 117.26149,117.39015 -8.98805,61.37802 -25.25108,-39.24195 z"
               id="path551" />
            <path
               style="fill:#6ecddd;fill-opacity:1;stroke-width:0.301487"
               d="m 118.33451,122.42827 -7.21075,52.44277 17.30454,-16.86372 z"
               id="path553" />
            <path
               style="fill:#6ecddd;fill-opacity:1;stroke-width:0.335318"
               d="m 119.05396,117.24893 13.98324,45.14224 8.83394,-13.98382 -13.89882,-26.05809 23.46303,33.66001 5.48637,-11.76456 -19.61718,-23.11346 30.0615,29.34859 5.00536,-10.4532 -27.16052,-22.07027 37.98038,24.70455 3.1486,-9.72637 -30.27473,-18.75331 40.53645,20.3149 4.43782,-11.16624 -33.66401,-13.47438 45.15975,13.41708 7.68014,-11.91066 -40.48811,-6.49209 50.70883,1.96182 6.37778,-11.841731 -36.62821,1.408556 39.05075,-10.245911 6.20621,-12.477593 -46.16653,15.834754 -17.45705,6.932726 -16.69588,6.224859 -15.58335,6.01172 -9.44602,3.14005 -9.46105,2.91779 z"
               id="path555"
               sodipodi:nodetypes="ccccccccccccccccccccccccccccccc" />
            <path
               style="fill:#6ecddd;fill-opacity:1;stroke-width:0.301487"
               d="m 110.89442,177.76622 1.84405,-1.87781 -1.88499,49.02723 -8.2925,4.1273 z"
               id="path557"
               sodipodi:nodetypes="ccccc" />
            <path
               style="fill:#6ecddd;fill-opacity:1;stroke-width:0.301487"
               d="m 114.43103,174.45138 1.82309,-1.81195 5.58138,52.34473 -8.36587,7.23473 z"
               id="path559"
               sodipodi:nodetypes="ccccc" />
            <path
               style="fill:#6ecddd;fill-opacity:1;stroke-width:0.301487"
               d="m 117.72252,171.17559 2.14206,-2.13877 16.41917,55.64362 -8.54723,10.13362 z"
               id="path561"
               sodipodi:nodetypes="ccccc" />
            <path
               style="fill:#6ecddd;fill-opacity:1;stroke-width:0.301487"
               d="m 121.13671,167.75305 1.94139,-1.93948 24.92289,49.98851 -7.51801,11.23773 z"
               id="path563"
               sodipodi:nodetypes="ccccc" />
            <path
               style="fill:#6ecddd;fill-opacity:1;stroke-width:0.301487"
               d="m 124.39744,164.52147 1.93454,-1.9699 30.68752,45.19298 -2.863,12.0384 z"
               id="path567"
               sodipodi:nodetypes="ccccc" />
            <path
               style="fill:#6ecddd;fill-opacity:1;stroke-width:0.301487"
               d="m 37.917822,95.945727 4.209112,2.203968 21.190505,-35.779843 H 164.87201 l 19.80142,28.162741 4.92366,-2.072396 -22.14542,-31.113928 H 60.546796 Z"
               id="path569"
               sodipodi:nodetypes="ccccccccc" />
            <path
               style="fill:#000000;stroke-width:0.301487"
               d="m 18.292251,150.34265 0.06696,0.16186 0.165384,-0.30277 z"
               id="path575" />
            <path
               style="fill:#6ecddd;fill-opacity:1;stroke-width:0.301487"
               d="m 127.20951,161.75648 5.34379,8.45391 -3.67944,-10.17201 z"
               id="path2459"
               sodipodi:nodetypes="cccc" />
          </g>
        </g>
      </g>
    </g>
  </g>
  <metadata
     id="metadata252">
    <rdf:RDF>
      <cc:Work
         rdf:about="">
        <cc:license
           rdf:resource="http://creativecommons.org/publicdomain/zero/1.0/" />
      </cc:Work>
      <cc:License
         rdf:about="http://creativecommons.org/publicdomain/zero/1.0/">
        <cc:permits
           rdf:resource="http://creativecommons.org/ns#Reproduction" />
        <cc:permits
           rdf:resource="http://creativecommons.org/ns#Distribution" />
        <cc:permits
           rdf:resource="http://creativecommons.org/ns#DerivativeWorks" />
      </cc:License>
    </rdf:RDF>
  </metadata>
</svg>
